<?xml version="1.0" encoding="UTF-8"?>
<!DOCTYPE svg PUBLIC "-//W3C//DTD SVG 1.1//EN" "http://www.w3.org/Graphics/SVG/1.1/DTD/svg11.dtd">
<!-- Creator: CorelDRAW -->
<svg xmlns="http://www.w3.org/2000/svg" xml:space="preserve" width="2048px" height="2048px" style="shape-rendering:geometricPrecision; text-rendering:geometricPrecision; image-rendering:optimizeQuality; fill-rule:evenodd; clip-rule:evenodd"
viewBox="0 0 2048 2048"
 xmlns:xlink="http://www.w3.org/1999/xlink">
 <defs>
  <style type="text/css">
   <![CDATA[
    .fil1 {fill:none}
    .fil0 {fill:#bfd4fb;fill-rule:nonzero} <!-- Updated fill color -->
   ]]>
  </style>
 </defs>
 <g id="Layer_x0020_1">
  <metadata id="CorelCorpID_0Corel-Layer"/>
  <path class="fil0" d="M671.999 255.998l704.001 0c44.0327,0 84.0414,17.9917 113.026,46.9748 28.9831,28.9843 46.9748,68.993 46.9748,113.026l0 95.9977c0,17.6728 -14.328,32.0008 -32.0008,32.0008l-16.0618 0 0 960 16.0618 0c17.6728,0 32.0008,14.328 32.0008,32.0008l0 96.0024c0,44.0327 -17.9917,84.0414 -46.9748,113.026 -28.9843,28.9831 -68.993,46.9748 -113.026,46.9748l-704.001 0c-44.0327,0 -84.0414,-17.9917 -113.026,-46.9748 -28.9831,-28.9843 -46.9748,-68.993 -46.9748,-113.026l0 -96.0024c0,-17.6728 14.328,-32.0008 32.0008,-32.0008l16.0606 0 0 -960 -16.0606 0c-17.6728,0 -32.0008,-14.328 -32.0008,-32.0008l0 -95.9977c0,-44.0327 17.9917,-84.0414 46.9748,-113.026 28.9843,-28.9831 68.993,-46.9748 113.026,-46.9748zm704.001 64.0016l-704.001 0c-26.3669,0 -50.3611,10.8095 -67.7752,28.2236 -17.4142,17.4142 -28.2236,41.4083 -28.2236,67.7752l0 63.9969 16.0606 0c17.6728,0 32.0008,14.328 32.0008,32.0008l0 1024c0,17.6728 -14.328,32.0008 -32.0008,32.0008l-16.0606 0 0 64.0016c0,26.3669 10.8095,50.3611 28.2236,67.7752 17.4142,17.4142 41.4083,28.2236 67.7752,28.2236l704.001 0c26.3669,0 50.3611,-10.8095 67.7752,-28.2236 17.4142,-17.4142 28.2236,-41.4083 28.2236,-67.7752l0 -64.0016 -16.0618 0c-17.6728,0 -32.0008,-14.328 -32.0008,-32.0008l0 -1024c0,-17.6728 14.328,-32.0008 32.0008,-32.0008l16.0618 0 0 -63.9969c0,-26.3669 -10.8095,-50.3611 -28.2236,-67.7752 -17.4142,-17.4142 -41.4083,-28.2236 -67.7752,-28.2236z"/>
  <path class="fil0" d="M550.966 479.998c-17.6728,0 -32.0008,14.328 -32.0008,32.0008 0,17.6728 14.328,32.0008 32.0008,32.0008l473.801 0 472.269 0c17.6728,0 32.0008,-14.328 32.0008,-32.0008 0,-17.6728 -14.328,-32.0008 -32.0008,-32.0008l-472.269 0 -473.801 0z"/>
  <path class="fil0" d="M550.966 1504c-17.6728,0 -32.0008,14.328 -32.0008,32.0008 0,17.6728 14.328,32.0008 32.0008,32.0008l473.801 0 472.269 0c17.6728,0 32.0008,-14.328 32.0008,-32.0008 0,-17.6728 -14.328,-32.0008 -32.0008,-32.0008l-472.269 0 -473.801 0z"/>
  <path class="fil0" d="M895.999 367.998c-17.6728,0 -32.0008,14.328 -32.0008,32.0008 0,17.6728 14.328,32.0008 32.0008,32.0008l256.002 0c17.6728,0 32.0008,-14.328 32.0008,-32.0008 0,-17.6728 -14.328,-32.0008 -32.0008,-32.0008l-256.002 0z"/>
  <path class="fil0" d="M971.672 1616c-17.6728,0 -32.0008,14.328 -32.0008,32.0008 0,17.6728 14.328,32.0008 32.0008,32.0008l104.655 0c17.6728,0 32.0008,-14.328 32.0008,-32.0008 0,-17.6728 -14.328,-32.0008 -32.0008,-32.0008l-104.655 0z"/>
  <path class="fil0" d="M1187.12 812.411l-50.9823 322.749c-1.11496,6.54567 -1.67244,11.2819 -1.67244,14.3457 0,4.87559 1.3937,8.63741 4.04055,11.4224 2.78622,2.64685 6.82441,4.04055 12.2587,4.04055 12.5362,0 26.6044,-5.57245 42.4855,-16.7162 23.4,-16.2969 42.6237,-39.978 57.6674,-70.7623 15.1843,-30.9225 22.7043,-68.256 22.7043,-112.133 0,-71.739 -20.615,-128.57 -61.8461,-170.082 -41.2323,-41.6492 -96.5316,-62.543 -165.902,-62.543 -51.1217,0 -97.7859,12.2587 -139.714,36.7748 -42.0674,24.515 -74.5241,60.0355 -97.2284,106.561 -22.7043,46.5237 -33.9886,97.9241 -33.9886,154.205 0,74.2849 19.9449,139.593 59.7103,199.059 39.7654,59.4705 95.0882,88.2069 164.148,88.2069 13.5205,0 30.5744,-1.37399 50.9823,-4.04188 20.1387,-2.45898 37.6422,-3.48695 51.5528,-3.48695 13.2067,0 24.4601,4.13251 34.7254,12.3979 10.1448,8.21434 15.4677,18.0608 15.4677,28.7972 0,9.64413 -3.70817,17.2067 -11.3629,22.8902 -7.65468,5.68944 -17.4635,8.53415 -30.2839,8.53415l-35.0864 0c-9.51042,0 -17.2073,3.23042 -22.9397,8.72507 -5.73249,5.48464 -8.59794,12.4627 -8.59794,19.8823 0,16.0519 7.96821,31.1343 23.8364,43.2639 15.8445,12.1296 35.1667,18.4201 57.0136,18.4201 45.2872,0 82.9426,-19.2397 115.012,-57.3925 23.5867,-27.5867 34.4144,-61.7191 34.4144,-102.406 0,-46.0534 -9.67135,-83.4046 -28.6816,-114.799 -19.0113,-31.3899 -46.1733,-56.0348 -80.4414,-73.9454 -34.268,-17.9098 -72.0243,-26.8655 -112.331,-26.8655 -14.2528,0 -26.5872,1.57066 -37.2334,4.68762 -10.6435,3.11476 -21.1485,5.70414 -31.3729,5.70414z"/>
 </g>
</svg>
