<svg fill="#80acff" xmlns="http://www.w3.org/2000/svg" viewBox="0 0 48 48">
  <defs>
    <style>.cls-1{fill:#80acff;}</style>
  </defs>
  <title>Asset 111</title>
  <g id="Layer_2" data-name="Layer 2">
    <g id="_1" data-name="1">
      <rect class="cls-1" y="46" width="48" height="2"/>
      <path class="cls-1" d="M34,14H14a1,1,0,0,1-1-1V1a1,1,0,0,1,1-1H34a1,1,0,0,1,1,1V13A1,1,0,0,1,34,14ZM15,12H33V2H15Z"/>
      <path class="cls-1" d="M44,48H4a1,1,0,0,1-1-1V30a1,1,0,0,1,1-1H44a1,1,0,0,1,1,1V47A1,1,0,0,1,44,48ZM5,46H43V31H5Z"/>
      <path class="cls-1" d="M39,31H9a1,1,0,0,1-1-1V13a1,1,0,0,1,1-1H39a1,1,0,0,1,1,1V30A1,1,0,0,1,39,31ZM10,29H38V14H10Z"/>
      <rect class="cls-1" x="17" y="4" width="6" height="2"/>
      <rect class="cls-1" x="17" y="8" width="6" height="2"/>
      <rect class="cls-1" x="25" y="4" width="6" height="2"/>
      <rect class="cls-1" x="25" y="8" width="6" height="2"/>
      <rect class="cls-1" x="20" y="17" width="8" height="2"/>
      <rect class="cls-1" x="20" y="21" width="8" height="2"/>
      <rect class="cls-1" x="20" y="25" width="8" height="2"/>
      <rect class="cls-1" x="30" y="17" width="6" height="2"/>
      <rect class="cls-1" x="30" y="21" width="6" height="2"/>
      <rect class="cls-1" x="30" y="25" width="6" height="2"/>
      <rect class="cls-1" x="12" y="17" width="6" height="2"/>
      <rect class="cls-1" x="12" y="21" width="6" height="2"/>
      <rect class="cls-1" x="12" y="25" width="6" height="2"/>
      <rect class="cls-1" x="25" y="34" width="7" height="2"/>
      <rect class="cls-1" x="25" y="38" width="7" height="2"/>
      <rect class="cls-1" x="25" y="42" width="7" height="2"/>
      <rect class="cls-1" x="34" y="34" width="7" height="2"/>
      <rect class="cls-1" x="34" y="38" width="7" height="2"/>
      <rect class="cls-1" x="34" y="42" width="7" height="2"/>
      <rect class="cls-1" x="16" y="34" width="7" height="2"/>
      <rect class="cls-1" x="16" y="38" width="7" height="2"/>
      <rect class="cls-1" x="16" y="42" width="7" height="2"/>
      <rect class="cls-1" x="7" y="34" width="7" height="2"/>
      <rect class="cls-1" x="7" y="38" width="7" height="2"/>
      <rect class="cls-1" x="7" y="42" width="7" height="2"/>
      <rect class="cls-1" x="12" width="24" height="2"/>
      <rect class="cls-1" x="7" y="12" width="34" height="2"/>
      <rect class="cls-1" x="2" y="29" width="44" height="2"/>
    </g>
  </g>
</svg>
