<?xml version="1.0" encoding="UTF-8"?>
<!DOCTYPE svg PUBLIC "-//W3C//DTD SVG 1.1//EN" "http://www.w3.org/Graphics/SVG/1.1/DTD/svg11.dtd">
<!-- Creator: CorelDRAW -->
<svg xmlns="http://www.w3.org/2000/svg" xml:space="preserve" width="2048px" height="2048px" style="shape-rendering:geometricPrecision; text-rendering:geometricPrecision; image-rendering:optimizeQuality; fill-rule:evenodd; clip-rule:evenodd"
viewBox="0 0 2048 2048"
 xmlns:xlink="http://www.w3.org/1999/xlink">
 <defs>
  <style type="text/css">
   <![CDATA[
    .fil2 {fill:none}
    .fil1 {fill:#424242}
    .fil0 {fill:#424242;fill-rule:nonzero}
   ]]>
  </style>
 </defs>
 <g id="Layer_x0020_1">
  <metadata id="CorelCorpID_0Corel-Layer"/>
  <path class="fil0" d="M906.362 836.546c-29.7414,-9.86221 -59.4166,-27.3532 -86.7934,-50.5748 -26.615,-22.5756 -51.4418,-50.8264 -72.3225,-82.9205l-0.0838583 0.0555119 -0.00236221 -0.00354331 -0.124016 -0.37441c-36.8705,-56.7851 -56.4626,-117.76 -58.33,-170.43 -2.06929,-58.3595 17.25,-107.835 58.4493,-134.587l0.0011811 0 0.0011811 -0.0011811c41.2583,-26.7898 94.3135,-24.3437 146.733,1.2685 47.2985,23.1083 95.0198,65.8394 131.942,122.706l0.00590552 0.00708662c27.7418,42.7252 46.1162,88.6253 54.0178,131.672 2.1815,11.8878 6.08268,23.7614 4.14449,35.0492l-15.0378 87.5209 -42.0555 -27.8705c10.2083,-21.8327 -3.80197,-50.5146 -9.80079,-83.2005 -6.43347,-35.0492 -21.6555,-72.8268 -44.7662,-108.418l-0.00472441 -0.00708662c-30.3992,-46.8189 -68.8536,-81.593 -106.445,-99.958 -31.0394,-15.1665 -60.3343,-18.5823 -81.1595,-6.96851l-6.95079 6.95079 -2.61024 0c-16.3441,15.1169 -23.8477,41.628 -22.7138,73.5851 1.47638,41.6552 17.5524,90.8044 47.8725,137.61l0.0814961 -0.0543308 0.00236221 0.00354331 0.124016 0.37441c17.4437,26.8654 38.1402,50.4567 60.2823,69.2386 21.4689,18.2103 43.9016,31.6488 65.543,38.8252l-20.0008 60.5008zm119.471 -314.861l0.00236221 0.00236221"/>
  <path class="fil0" d="M1249.61 772.899c22.963,-8.57009 44.7485,-20.2984 64.0867,-34.265 19.0004,-13.7232 35.4851,-29.5146 48.2032,-46.4717 12.5965,-16.7941 20.4862,-33.2504 23.9374,-48.5091 2.92087,-12.9165 2.57126,-24.8079 -0.871654,-35.0114 -3.2315,-9.57875 -9.42166,-18.0437 -18.3969,-24.776 -8.61733,-6.463 -19.8898,-11.478 -33.7311,-14.6079 -35.4437,-8.01615 -78.2398,-1.78228 -118.772,14.778 -41.204,16.8343 -79.3182,44.0823 -104.571,77.752 -17.4225,23.2276 -26.0587,46.1552 -25.9276,65.9977 0.109843,16.5874 7.05473,31.3087 20.8134,41.8347l-38.7496 50.7496c-30.2859,-23.1685 -45.5717,-55.6607 -45.815,-92.3339 -0.222047,-33.4181 12.6614,-69.8127 38.6788,-104.499 32.2595,-43.0099 80.1792,-77.5052 131.571,-98.5017 52.0619,-21.2717 108.436,-28.9607 156.773,-18.0284 22.8236,5.16142 42.2422,14.0551 57.9815,25.8591 19.5945,14.6976 33.2729,33.6733 40.6465,55.5248 7.16339,21.228 8.16142,44.7685 2.62205,69.2634 -5.3752,23.7638 -16.989,48.4949 -35.1886,72.7595 -16.6122,22.148 -37.7918,42.5209 -61.9536,59.9717 -23.824,17.2063 -50.7083,31.6725 -79.0867,42.2634l-22.2496 -59.7497z"/>
  <path class="fil1" d="M991.999 1669.33l0 -898.557 -79.2131 0 -109.952 0 -501.109 0c-12.463,0 -23.8559,5.13189 -32.1933,13.4079l-0.0625985 0.0625985 -0.0614174 0.0637796c-8.27717,8.33623 -13.4091,19.7291 -13.4091,32.1922l0 807.105c0,12.6083 5.1437,24.0473 13.4102,32.3138 8.27481,8.27481 19.7232,13.4126 32.3162,13.4126l690.275 0z"/>
  <path class="fil1" d="M1792 1623.6l0 -807.105c0,-12.5929 -5.1378,-24.0414 -13.4126,-32.3162 -8.26654,-8.26654 -19.7055,-13.4102 -32.3138,-13.4102l-370.822 0 -120.332 0 -151.618 0 -33.652 0 -8.67402 0 -5.17559 0 0 41.4473 0 857.11 690.273 0c12.4536,0 23.85,-5.14134 32.1862,-13.415l0.0625985 -0.0625985 0.0614174 -0.0637796c8.27481,-8.33505 13.4162,-19.7315 13.4162,-32.1851z"/>
 </g>
 <rect class="fil2" width="2048" height="2048"/>
</svg>
